<svg xmlns="http://www.w3.org/2000/svg" xmlns:xlink="http://www.w3.org/1999/xlink" width="454.117" height="127.831" viewBox="0 0 454.117 127.831">
  <defs>
    <filter id="Path_2" x="0" y="0" width="127.831" height="127.831" filterUnits="userSpaceOnUse">
      <feOffset dx="8" dy="8" input="SourceAlpha"/>
      <feGaussianBlur stdDeviation="4" result="blur"/>
      <feFlood flood-color="#0d0c0c" flood-opacity="0.639"/>
      <feComposite operator="in" in2="blur"/>
      <feComposite in="SourceGraphic"/>
    </filter>
    <filter id="p" x="40.117" y="15.117" width="43" height="71" filterUnits="userSpaceOnUse">
      <feOffset dx="6" dy="6" input="SourceAlpha"/>
      <feGaussianBlur stdDeviation="3" result="blur-2"/>
      <feFlood flood-color="#613f3f" flood-opacity="0.161"/>
      <feComposite operator="in" in2="blur-2"/>
      <feComposite in="SourceGraphic"/>
    </filter>
  </defs>
  <g id="logo_final" transform="translate(-55.883 -2.883)">
    <g transform="matrix(1, 0, 0, 1, 55.88, 2.88)" filter="url(#Path_2)">
      <g id="Path_2-2" data-name="Path 2" transform="matrix(0.72, 0.69, -0.69, 0.72, 55.01, 4)" fill="#ee1b1b">
        <path d="M 68.43091583251953 72.93091583251953 L 5.000004291534424 72.93091583251953 C 2.518694162368774 72.93091583251953 0.5000041127204895 70.91222381591797 0.5000041127204895 68.43091583251953 L 0.5000041127204895 5.000004291534424 C 0.5000041127204895 2.518694162368774 2.518694162368774 0.5000041127204895 5.000004291534424 0.5000041127204895 L 32.86347579956055 0.6269140839576721 L 68.43269348144531 0.5000041127204895 C 70.91222381591797 0.5000041127204895 72.93091583251953 2.518694162368774 72.93091583251953 5.000004291534424 L 72.93091583251953 68.43091583251953 C 72.93091583251953 70.91222381591797 70.91222381591797 72.93091583251953 68.43091583251953 72.93091583251953 Z" stroke="none"/>
        <path d="M 68.43447113037109 0.9999847412109375 L 32.86932373046875 1.126914978027344 L 32.86526489257813 1.126937866210938 L 32.8611946105957 1.126914978027344 L 4.997817993164063 0.9999923706054688 C 2.793136596679688 1.001091003417969 0.9999923706054688 2.795059204101563 0.9999923706054688 4.999992370605469 L 0.9999923706054688 68.43090057373047 C 0.9999923706054688 70.63651275634766 2.794387817382813 72.43090057373047 4.999992370605469 72.43090057373047 L 68.43090057373047 72.43090057373047 C 70.63651275634766 72.43090057373047 72.43090057373047 70.63651275634766 72.43090057373047 68.43090057373047 L 72.43090057373047 4.999992370605469 C 72.43090057373047 2.794387817382813 70.63651275634766 0.9999923706054688 68.43447113037109 0.9999847412109375 M 4.999992370605469 -7.62939453125e-06 L 32.86575317382813 0.126922607421875 L 68.43090057373047 -7.62939453125e-06 C 71.19232177734375 -7.62939453125e-06 73.43090057373047 2.238571166992188 73.43090057373047 4.999992370605469 L 73.43090057373047 68.43090057373047 C 73.43090057373047 71.19232177734375 71.19232177734375 73.43090057373047 68.43090057373047 73.43090057373047 L 4.999992370605469 73.43090057373047 C 2.238571166992188 73.43090057373047 -7.62939453125e-06 71.19232177734375 -7.62939453125e-06 68.43090057373047 L -7.62939453125e-06 4.999992370605469 C -7.62939453125e-06 2.238571166992188 2.238571166992188 -7.62939453125e-06 4.999992370605469 -7.62939453125e-06 Z" stroke="none" fill="#707070"/>
      </g>
    </g>
    <g transform="matrix(1, 0, 0, 1, 55.88, 2.88)" filter="url(#p)">
      <text id="p-2" data-name="p" transform="translate(43.12 61.12)" fill="#f9efef" font-size="40" font-family="SegoeUI-Bold, Segoe UI" font-weight="700"><tspan x="0" y="0">p</tspan></text>
    </g>
    <text id="PaSE_Covid-19_App" data-name="PaSE Covid-19 App" transform="translate(182 73)" fill="#ee1b1b" font-size="36" font-family="GillSansMT-Bold, Gill Sans MT" font-weight="700"><tspan x="0" y="0">PaSE Covid-19 App</tspan></text>
  </g>
</svg>
